<svg width="86" height="86" viewBox="0 0 86 86" fill="none" xmlns="http://www.w3.org/2000/svg">
<g id="api (1) 1">
<path id="Vector" d="M47.7643 29.163L41.3694 57.5952C41.2095 58.3218 40.538 58.8273 39.8026 58.8273C39.6747 58.8273 39.5788 58.8273 39.4509 58.7957C38.5876 58.6061 38.044 57.7532 38.2359 56.9002L44.6308 28.468C44.8226 27.615 45.6859 27.078 46.5493 27.2675C47.4126 27.4571 47.9561 28.31 47.7643 29.163ZM33.1519 36.4606C33.7914 35.8288 33.7914 34.8495 33.1519 34.2176C32.5124 33.5858 31.5212 33.5858 30.8817 34.2176L25.1903 39.8409C23.3358 41.6732 23.3358 44.6428 25.1903 46.4751L30.7219 51.9404C31.0416 52.2563 31.4573 52.4142 31.841 52.4142C32.2247 52.4142 32.6723 52.2563 32.9601 51.9404C33.5996 51.3085 33.5996 50.3292 32.9601 49.6974L27.4285 44.2321C26.821 43.6318 26.821 42.6525 27.4285 42.0523L33.12 36.429L33.1519 36.4606ZM55.1184 34.2176C54.4789 33.5858 53.4877 33.5858 52.8482 34.2176C52.2088 34.8495 52.2088 35.8288 52.8482 36.4606L58.5397 42.0839C59.1472 42.6841 59.1472 43.6634 58.5397 44.2637L53.0081 49.729C52.3686 50.3608 52.3686 51.3401 53.0081 51.972C53.3279 52.2879 53.7435 52.4458 54.1272 52.4458C54.5109 52.4458 54.9586 52.2879 55.2463 51.972L60.7779 46.5067C62.6325 44.6744 62.6325 41.7048 60.7779 39.8725L55.0865 34.2492L55.1184 34.2176ZM75.742 62.8394C74.3991 64.9876 72.2888 66.504 69.7947 67.1042C67.3007 67.7044 64.7428 67.2937 62.5365 65.9669L61.1296 65.1139C58.5717 67.1674 55.694 68.7469 52.5924 69.8526V71.4638C52.5924 76.6764 48.2759 80.9412 43.0001 80.9412C37.7243 80.9412 33.4077 76.6764 33.4077 71.4638V69.8526C30.3062 68.7785 27.4285 67.199 24.8705 65.1139L23.4636 65.9669C21.2894 67.2937 18.6994 67.7044 16.2054 67.1042C13.7114 66.504 11.6011 64.9876 10.2582 62.8394C7.50836 58.385 8.91524 52.5406 13.4236 49.7921L14.8305 48.9392C14.4149 47.0121 14.191 45.0219 14.191 43C14.191 40.9782 14.4149 39.0195 14.8305 37.0608L13.4236 36.2079C8.91524 33.491 7.50836 27.6466 10.2582 23.1607C11.6011 21.0125 13.7114 19.4961 16.2054 18.8958C18.6994 18.2956 21.2574 18.7063 23.4636 20.0331L24.8705 20.8861C27.4285 18.8327 30.3062 17.2531 33.4077 16.1474V14.5362C33.4077 9.32367 37.7243 5.05884 43.0001 5.05884C48.2759 5.05884 52.5924 9.32367 52.5924 14.5362V16.1474C55.694 17.2215 58.5717 18.8011 61.1296 20.8861L62.5365 20.0331C64.7108 18.7063 67.3007 18.3272 69.7947 18.8958C72.2888 19.4961 74.3991 21.0125 75.742 23.1607C78.4918 27.615 77.0849 33.4594 72.5765 36.2079L71.1696 37.0608C71.5853 38.9879 71.8091 40.9782 71.8091 43C71.8091 45.0219 71.5853 46.9805 71.1696 48.9392L72.5765 49.7921C77.0849 52.509 78.4918 58.3534 75.742 62.8394ZM70.9139 52.509L68.5158 51.0558C67.9082 50.7083 67.6205 49.9817 67.8123 49.3183C68.3559 47.2648 68.6117 45.1482 68.6117 43.0316C68.6117 40.915 68.3559 38.7984 67.8123 36.7449C67.6525 36.0815 67.9402 35.3549 68.5158 35.0074L70.9139 33.5542C73.9195 31.7219 74.8787 27.8362 73.0242 24.8666C71.1696 21.897 67.2368 20.9493 64.2312 22.7816L61.8331 24.2348C61.2256 24.5823 60.4582 24.5191 59.9466 24.0768C57.1968 21.6759 54.0313 19.9383 50.5461 18.8642C49.8746 18.6747 49.427 18.0429 49.427 17.3479V14.5994C49.427 11.1244 46.5493 8.28115 43.0321 8.28115C39.5149 8.28115 36.6372 11.1244 36.6372 14.5994V17.3479C36.6372 18.0429 36.1895 18.6431 35.518 18.8642C32.0328 19.9068 28.8673 21.6759 26.1175 24.0768C25.6059 24.5507 24.8386 24.6139 24.231 24.2348L21.8329 22.7816C18.8273 20.9493 14.8945 21.897 13.04 24.8666C11.1854 27.8362 12.1447 31.7219 15.1503 33.5542L17.5484 35.0074C18.1559 35.3549 18.4437 36.0815 18.2518 36.7449C17.7082 38.7984 17.4524 40.915 17.4524 43.0316C17.4524 45.1482 17.7082 47.2648 18.2518 49.3183C18.4117 49.9817 18.1239 50.7083 17.5484 51.0558L15.1503 52.509C12.1447 54.3413 11.1854 58.227 13.04 61.1966C14.8945 64.1662 18.8273 65.1139 21.8329 63.2816L24.231 61.8284C24.4868 61.6705 24.7746 61.6073 25.0624 61.6073C25.4461 61.6073 25.8298 61.7337 26.1175 61.9864C28.8673 64.3873 32.0328 66.1249 35.518 67.199C36.1895 67.3885 36.6372 68.0203 36.6372 68.7153V71.4638C36.6372 74.9388 39.5149 77.7821 43.0321 77.7821C46.5493 77.7821 49.427 74.9388 49.427 71.4638V68.7153C49.427 68.0203 49.8746 67.4201 50.5461 67.199C54.0313 66.1565 57.1968 64.3873 59.9466 61.9864C60.4902 61.5125 61.2575 61.4493 61.8331 61.8284L64.2312 63.2816C67.2368 65.1139 71.1696 64.1662 73.0242 61.1966C74.8787 58.227 73.9195 54.3413 70.9139 52.509Z" fill="#FCAE30" stroke="#FCAE30"/>
</g>
</svg>
