<svg width="86" height="86" viewBox="0 0 86 86" fill="none" xmlns="http://www.w3.org/2000/svg">
<g id="member-search 1">
<path id="Vector" d="M81.047 76.4522L69.5426 64.9473C71.2455 62.3765 72.2497 59.3052 72.2497 56C72.2497 47.0397 64.9603 39.75 56.0005 39.75C47.0408 39.75 39.7514 47.0397 39.7514 56C39.7514 64.9603 47.0408 72.25 56.0005 72.25C59.3056 72.25 62.3767 71.2458 64.9473 69.5427L76.4517 81.0478C77.0854 81.6815 77.9174 82 78.7494 82C79.5813 82 80.4133 81.6815 81.047 81.0478C82.3177 79.777 82.3177 77.723 81.047 76.4522ZM46.251 56C46.251 50.6245 50.6253 46.25 56.0005 46.25C61.3758 46.25 65.75 50.6245 65.75 56C65.75 61.3755 61.3758 65.75 56.0005 65.75C50.6253 65.75 46.251 61.3755 46.251 56ZM52.7507 23.5C52.7507 12.7458 44.0054 4 33.2517 4C22.498 4 13.7527 12.7458 13.7527 23.5C13.7527 34.2542 22.498 43 33.2517 43C44.0054 43 52.7507 34.2542 52.7507 23.5ZM33.2517 36.5C26.0826 36.5 20.2524 30.6695 20.2524 23.5C20.2524 16.3305 26.0826 10.5 33.2517 10.5C40.4209 10.5 46.251 16.3305 46.251 23.5C46.251 30.6695 40.4209 36.5 33.2517 36.5ZM33.2257 52.5485C33.4467 54.3295 32.1858 55.9513 30.4016 56.1755C19.0565 57.5925 10.4997 67.2938 10.4997 78.75C10.4997 80.544 9.04374 82 7.24983 82C5.45592 82 4 80.544 4 78.75C4 64.0243 15.0039 51.5475 29.5957 49.7275C31.3571 49.5033 32.9982 50.7675 33.2225 52.5518L33.2257 52.5485Z" fill="#242A33"/>
</g>
</svg>
