<svg width="87" height="86" viewBox="0 0 87 86" fill="none" xmlns="http://www.w3.org/2000/svg">
<path d="M74.417 32.5859L71.8675 31.736L71.8675 31.736L74.417 32.5859ZM63.1991 66.2383L65.7487 67.0881L63.1991 66.2383ZM20.4761 23.2278L21.3259 25.7774L20.4761 23.2278ZM53.913 12.0826L53.0632 9.53303V9.53303L53.913 12.0826ZM15.8074 43.004L13.9071 44.9044H13.9071L15.8074 43.004ZM16.8202 44.0167L18.7205 42.1163H18.7205L16.8202 44.0167ZM34.7286 67.3655L35.09 70.0285L35.09 70.0285L34.7286 67.3655ZM34.9845 67.3307L34.6231 64.6676L34.6231 64.6676L34.9845 67.3307ZM42.7557 69.9513L44.656 68.0509H44.656L42.7557 69.9513ZM43.656 70.8516L41.7557 72.752L41.7557 72.752L43.656 70.8516ZM37.5976 67.1003L37.7595 64.4177H37.7595L37.5976 67.1003ZM40.8158 68.1855L42.3115 65.9527L40.8158 68.1855ZM18.5341 45.8936L20.7574 44.3838L20.7574 44.3838L18.5341 45.8936ZM19.386 51.8059L22.0438 52.2048L22.0438 52.2048L19.386 51.8059ZM19.6489 49.2778L22.3343 49.1707L22.3343 49.1707L19.6489 49.2778ZM18.7472 60.6111L21.3665 60.0092L18.7472 60.6111ZM25.9149 67.8801L26.5535 65.2696H26.5535L25.9149 67.8801ZM8.15412 29.6928L10.6373 30.7207L10.6373 30.7207L8.15412 29.6928ZM7.67764 31.7112L10.3583 31.9024V31.9024L7.67764 31.7112ZM56.9382 78.2866L58.0208 80.7465H58.0208L56.9382 78.2866ZM54.6443 78.8281L54.5126 76.1439H54.5126L54.6443 78.8281ZM77.5851 8.9147L79.4854 7.01432L79.4854 7.01431L77.5851 8.9147ZM20.0995 62.5997C19.05 63.6492 19.05 65.3508 20.0995 66.4004C21.149 67.4499 22.8507 67.4499 23.9002 66.4004L20.0995 62.5997ZM77.6502 12.6504C78.6997 11.6008 78.6997 9.8992 77.6502 8.84967C76.6007 7.80014 74.899 7.80014 73.8495 8.84967L77.6502 12.6504ZM71.8675 31.736L60.6496 65.3884L65.7487 67.0881L76.9666 33.4358L71.8675 31.736ZM21.3259 25.7774L54.7628 14.6322L53.0632 9.53303L19.6263 20.6782L21.3259 25.7774ZM13.9071 44.9044L14.9198 45.9171L18.7205 42.1163L17.7077 41.1036L13.9071 44.9044ZM35.09 70.0285L35.346 69.9938L34.6231 64.6676L34.3671 64.7024L35.09 70.0285ZM40.8554 71.8517L41.7557 72.752L45.5563 68.9512L44.656 68.0509L40.8554 71.8517ZM35.3459 69.9938C36.7725 69.8002 37.1265 69.7643 37.4358 69.7829L37.7595 64.4177C36.8016 64.3599 35.8358 64.503 34.6231 64.6676L35.3459 69.9938ZM44.656 68.0509C43.7906 67.1856 43.1088 66.4868 42.3115 65.9527L39.3201 70.4183C39.5775 70.5908 39.8373 70.8337 40.8554 71.8517L44.656 68.0509ZM37.4358 69.7829C38.1092 69.8236 38.7596 70.0429 39.3201 70.4183L42.3115 65.9527C40.9575 65.0457 39.3862 64.5158 37.7595 64.4177L37.4358 69.7829ZM14.9198 45.9171C15.9065 46.9037 16.1425 47.1556 16.3109 47.4035L20.7574 44.3838C20.2358 43.6157 19.5591 42.955 18.7205 42.1163L14.9198 45.9171ZM22.0438 52.2048C22.2198 51.0319 22.3713 50.0983 22.3343 49.1707L16.9636 49.3849C16.9755 49.6843 16.9354 50.0271 16.7283 51.407L22.0438 52.2048ZM16.3108 47.4035C16.7092 47.9901 16.9353 48.6765 16.9636 49.3849L22.3343 49.1707C22.266 47.4591 21.7198 45.8008 20.7574 44.3838L16.3108 47.4035ZM16.7283 51.407C16.3826 53.7099 16.1044 55.556 15.9718 57.0486C15.8386 58.5484 15.8284 59.9091 16.128 61.213L21.3665 60.0092C21.2531 59.5156 21.2116 58.8096 21.3258 57.5241C21.4406 56.2314 21.6882 54.5737 22.0438 52.2048L16.7283 51.407ZM34.3671 64.7024C31.9934 65.0245 30.3323 65.2488 29.038 65.3453C27.751 65.4414 27.0456 65.39 26.5535 65.2696L25.2762 70.4906C26.5758 70.8086 27.9365 70.8175 29.438 70.7054C30.9324 70.5939 32.7823 70.3417 35.09 70.0285L34.3671 64.7024ZM16.128 61.213C17.1788 65.786 20.7184 69.3756 25.2762 70.4906L26.5535 65.2696C23.9692 64.6374 21.9623 62.602 21.3665 60.0092L16.128 61.213ZM19.6263 20.6782C15.9673 21.8979 12.9752 22.8897 10.7788 23.9444C8.56944 25.0054 6.61833 26.3762 5.67094 28.665L10.6373 30.7207C10.8221 30.2743 11.302 29.6558 13.1056 28.7897C14.9223 27.9173 17.525 27.0443 21.3259 25.7774L19.6263 20.6782ZM17.7077 41.1036C14.8747 38.2707 12.9371 36.3259 11.7024 34.7333C10.4766 33.1521 10.324 32.3843 10.3583 31.9024L4.99695 31.52C4.8207 33.9908 5.95278 36.0895 7.45445 38.0265C8.94721 39.952 11.1799 42.1773 13.9071 44.9044L17.7077 41.1036ZM5.67094 28.665C5.29455 29.5743 5.06697 30.5383 4.99695 31.52L10.3583 31.9024C10.3873 31.4961 10.4815 31.0971 10.6373 30.7207L5.67094 28.665ZM60.6496 65.3884C59.4164 69.0876 58.5669 71.6206 57.7214 73.3949C56.8811 75.1584 56.2824 75.639 55.8557 75.8268L58.0208 80.7465C60.2246 79.7766 61.5462 77.8632 62.5737 75.7071C63.5959 73.5618 64.5616 70.6494 65.7487 67.0881L60.6496 65.3884ZM41.7557 72.752C44.4102 75.4064 46.5764 77.5795 48.4502 79.0411C50.3334 80.5102 52.3712 81.6304 54.7761 81.5124L54.5126 76.1439C54.0469 76.1667 53.2965 76.0046 51.7561 74.803C50.2063 73.5941 48.3137 71.7085 45.5563 68.9512L41.7557 72.752ZM55.8557 75.8268C55.4311 76.0136 54.9759 76.1211 54.5126 76.1439L54.7761 81.5124C55.8954 81.4574 56.9951 81.1978 58.0208 80.7465L55.8557 75.8268ZM76.9666 33.4358C79.1744 26.8128 80.9343 21.5555 81.6528 17.5169C82.3678 13.4977 82.2281 9.75691 79.4854 7.01432L75.6848 10.8151C76.4841 11.6143 76.997 12.9993 76.3609 16.5754C75.7281 20.1321 74.1331 24.9395 71.8675 31.736L76.9666 33.4358ZM54.7628 14.6322C61.5596 12.3667 66.3672 10.7717 69.924 10.139C73.5003 9.50282 74.8854 10.0158 75.6848 10.8151L79.4854 7.01431C76.7427 4.27177 73.0019 4.1321 68.9826 4.84706C64.9439 5.56549 59.6865 7.32535 53.0632 9.53303L54.7628 14.6322ZM23.9002 66.4004L77.6502 12.6504L73.8495 8.84967L20.0995 62.5997L23.9002 66.4004Z" fill="#00AE8A"/>
</svg>
