<svg width="87" height="86" viewBox="0 0 87 86" fill="none" xmlns="http://www.w3.org/2000/svg">
<path d="M54.8648 67.4684L52.9645 69.3687L54.8648 67.4684ZM75.1352 47.198L77.0355 45.2976L75.1352 47.198ZM55.146 21.5C55.146 27.9318 49.932 33.1459 43.5002 33.1459V38.5209C52.9005 38.5209 60.521 30.9004 60.521 21.5H55.146ZM43.5002 33.1459C37.0683 33.1459 31.8543 27.9318 31.8543 21.5H26.4793C26.4793 30.9004 34.0998 38.5209 43.5002 38.5209V33.1459ZM31.8543 21.5C31.8543 15.0682 37.0683 9.85419 43.5002 9.85419V4.47919C34.0998 4.47919 26.4793 12.0997 26.4793 21.5H31.8543ZM43.5002 9.85419C49.932 9.85419 55.146 15.0682 55.146 21.5H60.521C60.521 12.0997 52.9005 4.47919 43.5002 4.47919V9.85419ZM43.5002 76.1459C36.4259 76.1459 31.2478 75.6987 27.4604 74.9321C23.6611 74.1631 21.4416 73.1077 20.1139 72.0265C17.6655 70.0327 17.521 67.3946 17.521 62.7084H12.146C12.146 66.9277 12.0015 72.3521 16.7198 76.1944C18.9754 78.0312 22.1309 79.3373 26.3941 80.2002C30.6692 81.0656 36.2411 81.5209 43.5002 81.5209V76.1459ZM17.521 62.7084C17.521 59.6577 19.7476 56.3485 24.5473 53.6486C29.2629 50.9961 35.9582 49.2709 43.5002 49.2709V43.8959C35.2099 43.8959 27.572 45.7803 21.9122 48.9639C16.3366 52.1001 12.146 56.8534 12.146 62.7084H17.521ZM43.5002 49.2709C47.1079 49.2709 50.5362 49.6661 53.6535 50.3759L54.8468 45.135C51.3247 44.3331 47.4955 43.8959 43.5002 43.8959V49.2709ZM68.9153 69.0542C68.354 70.8043 67.141 72.4911 63.5535 73.8266C59.7803 75.2313 53.6028 76.1459 43.5002 76.1459V81.5209C53.7775 81.5209 60.7357 80.611 65.4288 78.8639C70.3077 77.0476 72.8918 74.2553 74.0335 70.6958L68.9153 69.0542ZM76.646 57.3334C76.646 63.7652 71.432 68.9792 65.0002 68.9792V74.3542C74.4005 74.3542 82.021 66.7337 82.021 57.3334H76.646ZM53.3543 57.3334C53.3543 50.9015 58.5683 45.6875 65.0002 45.6875V40.3125C55.5998 40.3125 47.9793 47.933 47.9793 57.3334H53.3543ZM65.0002 68.9792C61.7835 68.9792 58.8756 67.6786 56.7652 65.5681L52.9645 69.3687C56.0417 72.4461 60.3007 74.3542 65.0002 74.3542V68.9792ZM56.7652 65.5681C54.6548 63.4577 53.3543 60.5499 53.3543 57.3334H47.9793C47.9793 62.0327 49.8873 66.2915 52.9645 69.3687L56.7652 65.5681ZM56.7652 69.3688L77.0356 49.0984L73.2349 45.2977L52.9645 65.5681L56.7652 69.3688ZM65.0002 45.6875C68.2168 45.6875 71.1245 46.988 73.2349 49.0984L77.0355 45.2976C73.9583 42.2205 69.6995 40.3125 65.0002 40.3125V45.6875ZM73.2349 49.0984C75.3454 51.2088 76.646 54.1166 76.646 57.3334H82.021C82.021 52.6338 80.1129 48.3749 77.0355 45.2976L73.2349 49.0984Z" fill="#EC113A"/>
</svg>
