<svg width="159" height="36" viewBox="0 0 159 36" fill="none" xmlns="http://www.w3.org/2000/svg">
<path d="M1.20178 0.156738C0.778938 0.667885 0.393187 1.21237 0.0371094 1.78648C0.115001 0.853083 0.452533 0.356752 1.20178 0.156738Z" fill="#00AE8A"/>
<path d="M0.760427 11.0206C0.0185982 11.0058 0.0148891 10.7577 0.0148891 9.62796C0.0111799 8.04637 0.00747079 6.46107 0.0111799 4.87948V4.87578C0.760427 3.03491 1.80641 1.41257 3.17879 0.0347013H3.1825C4.01335 0.0272934 4.85903 0.0272935 5.74552 0.0309974C2.13652 2.65711 0.437731 6.37218 0.760427 11.0206Z" fill="#00AE8A"/>
<path d="M23.0968 5.33491C21.8876 4.37929 20.6747 3.42367 19.4544 2.47916C15.8825 -0.280291 10.9531 -0.250659 7.40712 2.53472C4.81814 4.56819 3.47172 7.83509 3.7054 10.9575C3.14531 10.9501 2.58523 10.9538 2.01773 10.976C1.75439 6.22386 4.29515 2.00135 8.10444 0.0345456C8.45681 0.0382496 8.8166 0.0382497 9.18751 0.0382497C11.2053 0.153072 13.7943 -0.209916 16.3499 0.204928C19.3135 0.686443 21.8097 2.7051 23.0968 5.33491Z" fill="#00AE8A"/>
<path d="M23.846 11.5502C23.5679 12.9799 22.9744 14.3023 21.9618 15.4986C21.487 16.0579 21.0642 16.1617 20.4077 15.7727C19.6807 15.3394 18.9574 14.9319 18.2156 14.5615C18.5234 14.5838 18.7719 14.3282 18.861 13.8504C18.8016 13.7319 18.7645 13.5615 18.6607 13.4763C17.0472 12.1947 15.4337 10.9168 13.798 9.6612C13.5532 9.476 13.2045 9.54638 12.9894 9.82047C12.7334 10.1501 12.8262 10.4872 13.1155 10.7168C14.6214 11.9206 16.1236 13.1318 17.6703 14.2874C15.9048 13.4244 14.0984 12.7281 12.2475 12.1984H12.2438C12.1882 12.1503 12.1326 12.0984 12.0769 12.0466C11.0569 11.1132 10.8937 9.60194 11.6615 8.70188C12.5109 7.70921 13.8276 7.58698 15.0109 8.42037C15.4708 8.74632 15.9048 9.10561 16.3462 9.45748C17.9708 10.7391 19.5917 12.0206 21.2125 13.3059C21.5723 13.5911 21.9544 13.7578 22.303 13.354C22.6554 12.9466 22.4551 12.5651 22.099 12.2873C19.855 10.5168 17.6481 8.69817 15.3336 7.02028C14.0984 6.12392 12.663 6.26467 11.3982 7.09065C10.1667 7.89812 9.63631 9.1019 9.82919 10.9317C9.84773 11.1465 9.91079 11.391 10.0184 11.6391C9.41747 11.5132 8.81288 11.4021 8.20458 11.3132C7.72981 9.15005 8.63855 6.78322 10.7194 5.56462C12.6741 4.4201 15.0109 4.59048 16.9656 6.1017C19.1688 7.80552 21.3424 9.55379 23.5159 11.2909C23.6272 11.3872 23.7348 11.4724 23.846 11.5502Z" fill="#00AE8A"/>
<path d="M24.0315 9.93527C21.8209 8.187 19.6177 6.43503 17.3811 4.71639C16.0012 3.65706 14.3989 3.33111 12.5888 3.50519C9.88487 3.90892 7.95241 5.43125 7.06963 8.0981C6.71726 9.16114 6.61341 10.176 6.74694 11.1391C6.2054 11.0798 5.66387 11.039 5.11491 11.0094C5.10378 10.4279 5.05557 9.83896 5.12975 9.27226C5.54146 6.11648 7.16607 3.79781 10.1 2.51253C13.0822 1.20503 15.9493 1.61617 18.542 3.50519C20.3706 4.83862 22.1176 6.27946 23.8906 7.69067C23.9833 8.17218 24.0353 8.66481 24.0464 9.16114C24.0464 9.41671 24.0427 9.67599 24.0315 9.93527Z" fill="#00AE8A"/>
<path d="M1.17215 16.3284C0.778985 16.6395 0.393234 16.9655 0.0334473 17.3136C0.0557021 17.0395 0.0965027 16.8469 0.185522 16.7062L0.189231 16.6988C0.248578 16.6025 0.32647 16.5321 0.437744 16.4802L0.441453 16.4765C0.608365 16.395 0.84575 16.3543 1.17215 16.3284Z" fill="#78CABB"/>
<path d="M4.692 16.2987C3.93163 16.7506 3.19722 17.2469 2.49248 17.7988C1.57261 18.5174 0.760308 19.3323 0.0258979 20.2249C0.0258979 20.036 0.0221888 19.8508 0.0184796 19.6619C0.600815 19.01 1.22766 18.3915 1.91014 17.8062C2.08447 17.6544 2.21429 17.4951 2.03625 17.284C1.8508 17.0654 1.66905 17.2025 1.49843 17.3395C0.982857 17.7544 0.519214 18.2211 0.185391 18.5952C0.129754 18.6581 0.0704077 18.7137 0.0147705 18.7767V18.2211C0.652743 17.5692 1.34264 16.9617 2.09189 16.4098C2.15124 16.3654 2.21058 16.3209 2.26993 16.2765C2.48877 16.2691 2.7039 16.2654 2.91903 16.2654C2.83743 16.3209 2.75954 16.3765 2.68164 16.4358C2.54812 16.5654 2.48135 16.7173 2.60746 16.8802C2.72245 17.0247 2.87081 17.0247 3.02289 16.9284C3.08965 16.8876 3.15641 16.8506 3.22318 16.8062C3.48653 16.621 3.75359 16.4432 4.02435 16.2728C4.25061 16.2802 4.46945 16.2876 4.692 16.2987Z" fill="#78CABB"/>
<path d="M14.243 18.4839C13.8239 18.495 13.3974 18.5246 12.9782 18.5728C10.0072 18.921 7.38113 20.0581 5.17048 22.0138C4.99986 21.999 4.82924 21.9841 4.66233 21.9767C5.71572 20.9841 7.13262 20.0359 8.58289 19.4062C8.73868 19.3395 8.89075 19.2728 9.04283 19.1951C9.19861 19.1136 9.2765 18.9802 9.20232 18.8098C9.13185 18.6432 8.97977 18.6061 8.81286 18.6506C8.72384 18.6765 8.64224 18.7061 8.55693 18.7432C6.73574 19.5321 5.14452 20.5877 3.80552 21.9397C3.6386 21.936 3.47169 21.9323 3.30478 21.9323C3.36413 21.8693 3.41976 21.8063 3.47911 21.7471C3.63119 21.5915 3.75359 21.4285 3.58668 21.2063C3.33816 21.0174 3.17125 21.1841 3.01918 21.3471C2.83001 21.5471 2.64455 21.7471 2.46651 21.9508C2.29589 21.9545 2.12156 21.9656 1.95094 21.973C1.99174 21.936 2.03254 21.8915 2.06593 21.8545C2.23655 21.6619 2.38491 21.4471 2.56295 21.2619C3.86857 19.8914 5.3819 18.8024 7.07327 17.9579C7.25873 17.8653 7.44419 17.7727 7.61481 17.6579C7.72979 17.5801 7.76688 17.4468 7.70383 17.3097C7.64077 17.1727 7.52208 17.1282 7.38484 17.1505C7.28469 17.169 7.18455 17.206 7.09182 17.2505C5.3003 18.1468 3.64231 19.2321 2.27735 20.7174C2.04738 20.9618 1.81 21.2026 1.58374 21.4508C1.43537 21.6137 1.31668 21.81 1.51326 21.9952L1.5281 22.0101C1.41312 22.0175 1.29813 22.0286 1.17944 22.036C0.982857 22.0545 0.812236 22.0508 0.66758 22.0212C0.70838 21.9656 0.75289 21.9101 0.7974 21.8508C1.60228 20.8137 2.50361 19.8729 3.60522 18.9728C3.67199 18.9098 3.76101 18.7543 3.60522 18.5765C3.45315 18.4061 3.27511 18.4506 3.12303 18.5802C2.74841 18.895 2.35153 19.1951 2.00287 19.5395C1.3241 20.2173 0.697253 20.9285 0.137172 21.6804C0.0704076 21.5582 0.0258979 21.4026 0.0147705 21.21C0.207646 20.9841 0.389394 20.7433 0.58227 20.5211C2.08447 18.7802 3.84632 17.4209 5.83071 16.3875C6.05697 16.406 6.27951 16.4282 6.50206 16.4504C5.84554 16.7578 5.23725 17.1208 4.68458 17.469C4.49542 17.6431 4.44349 17.7653 4.53993 17.9098C4.64007 18.0579 4.78844 18.1172 4.94422 18.0209C5.72314 17.5616 6.50206 17.1097 7.32549 16.7356C7.40709 16.6986 7.46273 16.643 7.48499 16.5764H7.4887C7.81139 16.6208 8.13038 16.6764 8.44936 16.7356C8.3826 16.8393 8.36034 16.9356 8.40485 17.0393C8.45678 17.1616 8.55693 17.2245 8.68304 17.2097C8.82399 17.1912 8.96123 17.1505 9.09476 17.106C9.24312 17.0542 9.38778 17.006 9.53614 16.9579H9.53985C9.77724 17.0097 10.0183 17.0653 10.2557 17.1282C8.97977 17.4912 7.71866 18.0135 6.4761 18.695C5.68976 19.1247 4.95164 19.6284 4.27658 20.1877C4.11708 20.3618 4.09112 20.5285 4.19127 20.6544C4.33221 20.8211 4.488 20.7729 4.64007 20.6729C4.70684 20.6322 4.76989 20.584 4.82924 20.5396C6.92491 18.9691 9.13185 17.9394 11.4501 17.4616C11.7023 17.5357 11.9508 17.6172 12.1993 17.7024C11.6615 17.7875 11.1274 17.9061 10.597 18.0468C10.3596 18.1098 9.95899 18.1172 10.0554 18.5061C10.163 18.9284 10.5265 18.7024 10.7713 18.6395C11.6726 18.4098 12.5776 18.2505 13.4938 18.1802H13.5012C13.746 18.2691 13.9945 18.3765 14.243 18.4839Z" fill="#78CABB"/>
<path d="M20.8157 30.0701C20.7341 30.1701 20.6376 30.1368 20.5338 30.1182C20.3817 30.096 20.2704 30.1071 20.2 30.159C20.0368 29.9553 19.8699 29.759 19.6992 29.5627L19.7474 29.5293C19.9515 29.37 19.8699 29.1737 19.74 29.0182C19.4693 28.6885 19.2245 28.3366 19.0167 28.1663C18.2786 27.4773 17.5145 26.9995 16.6911 26.7069C16.4241 26.4921 16.157 26.2921 15.8862 26.092C15.9827 26.1106 16.0754 26.1291 16.1718 26.1513C18.3009 26.6402 19.6362 28.1218 20.8046 29.8182C20.8602 29.9034 20.8862 29.9849 20.8157 30.0701Z" fill="#78CABB"/>
<path d="M24.2133 26.1067C22.6592 23.9769 20.6933 22.4027 18.1415 21.6101C18.1044 21.599 18.0673 21.5879 18.0302 21.5731C17.8484 21.5027 17.6852 21.3953 17.7446 21.1767C17.8076 20.936 18.0079 20.9175 18.2156 20.9804C18.594 21.0915 18.9649 21.2249 19.3284 21.3804C18.95 21.1064 18.5643 20.8434 18.1674 20.5915L18.1303 20.5804C16.8766 20.2137 15.597 20.047 14.2914 20.0915C14.0466 20.1026 13.6942 20.1952 13.6719 19.8211C13.646 19.4099 14.0206 19.4803 14.2765 19.4766C15.048 19.4618 15.7973 19.5062 16.5206 19.6063C16.2275 19.4433 15.9308 19.2877 15.6341 19.1396C15.5784 19.1396 15.5228 19.1358 15.4709 19.1321C12.9004 18.9766 10.4747 19.4951 8.19353 20.6915C7.41832 21.0989 6.69133 21.5619 6.02368 22.1027C6.19801 22.1249 6.37234 22.1472 6.54667 22.1768C8.17869 20.9249 10.0481 20.11 12.1326 19.6951C12.2217 19.6766 12.3107 19.6581 12.4034 19.6507C12.5889 19.6322 12.7484 19.6877 12.7892 19.8878C12.83 20.0952 12.7001 20.2026 12.5184 20.247C12.103 20.347 11.6801 20.4211 11.2684 20.5359C9.85523 20.9249 8.55332 21.5138 7.38494 22.3213C7.55556 22.3546 7.72618 22.3916 7.89309 22.425C8.59041 21.9768 9.35078 21.5879 10.1779 21.2582C11.2202 20.8434 12.307 20.6026 13.4234 20.4952C13.5903 20.4767 13.761 20.4545 13.9056 20.573C13.9835 20.6582 14.0132 20.7582 13.9798 20.8619C13.9242 21.0397 13.7758 21.0878 13.6163 21.0989C13.1007 21.1434 12.5889 21.2323 12.0807 21.3434C10.8715 21.6138 9.75137 22.0398 8.73136 22.6324C8.93165 22.6842 9.13194 22.7398 9.32853 22.7991C9.36562 22.7324 9.4398 22.6805 9.5214 22.6361C10.2707 22.2398 11.0607 21.9509 11.8804 21.762C15.2594 20.9804 18.3788 21.5656 21.2238 23.5658C21.2979 23.6176 21.3684 23.6732 21.4166 23.7139C21.5872 23.8732 21.7208 24.0325 21.5613 24.2325C21.3981 24.4399 21.2126 24.3288 21.0494 24.2066C20.0665 23.4732 19.002 22.8991 17.8225 22.5435C15.1853 21.7434 12.6074 21.9138 10.0926 23.0435L10.0852 23.0472C10.2521 23.1028 10.4153 23.1621 10.5785 23.225L10.6008 23.2139C10.8085 23.1287 11.0014 23.1398 11.0904 23.3658L11.1089 23.425C11.3871 23.5362 11.6616 23.6547 11.9323 23.7806C12.8114 23.5176 13.7498 23.388 14.7365 23.3843C14.8255 23.3843 14.9182 23.3917 15.0072 23.4102C15.1741 23.4436 15.304 23.5324 15.2965 23.7176C15.2891 23.9288 15.137 24.0066 14.9516 24.0029C14.5362 23.9991 14.1245 24.0251 13.709 24.0584C13.4012 24.0843 13.097 24.1288 12.7929 24.1918C12.9783 24.2844 13.1638 24.3844 13.3492 24.4844C15.4709 24.1547 17.6852 24.6251 19.4248 25.9215C19.5695 26.0289 19.703 26.1549 19.8328 26.2808C19.9589 26.4067 19.9886 26.5549 19.8662 26.6956C19.7438 26.8401 19.5917 26.8179 19.4471 26.7179C19.1689 26.529 18.9055 26.3215 18.6199 26.14C17.2401 25.277 15.712 24.914 14.2283 24.9918C14.4249 25.1103 14.6178 25.2326 14.8144 25.3585C17.0435 25.4104 18.913 26.3771 20.4115 28.2772C20.66 28.5921 20.8973 28.9143 21.1496 29.2291C21.2349 29.3328 21.3276 29.4921 21.4945 29.3514C21.6392 29.2328 21.5168 29.118 21.4426 29.018C21.1607 28.6476 20.8788 28.2772 20.5932 27.9068C20.4597 27.7327 20.3261 27.5401 20.5376 27.3623C20.7638 27.1734 20.9419 27.3364 21.0865 27.5253C21.3536 27.8735 21.628 28.2217 21.8988 28.5698C21.9693 28.6587 22.0323 28.781 22.1733 28.6587C22.2771 28.5624 22.2734 28.4624 22.1918 28.3513C21.4055 27.3179 20.6414 26.2734 19.5324 25.5474C19.3247 25.4104 18.9946 25.2696 19.2023 24.9622C19.4248 24.6251 19.6845 24.9066 19.8922 25.0548C20.8899 25.7511 21.6911 26.6438 22.4144 27.6179C22.5145 27.755 22.6036 28.0994 22.8521 27.9142C23.0857 27.7401 22.8113 27.5401 22.7 27.3957C22.3365 26.9253 21.9878 26.4401 21.565 26.0215C21.4723 25.9326 21.3944 25.8289 21.3165 25.7252C21.2089 25.5844 21.183 25.4363 21.3128 25.3029C21.4648 25.1511 21.6206 25.2066 21.7616 25.3252C22.1102 25.6215 22.381 25.9882 22.6703 26.3363C22.878 26.5845 23.0709 26.8475 23.2749 27.0957C23.3417 27.1808 23.3973 27.3253 23.5457 27.2142C23.6755 27.1179 23.6607 26.9919 23.5642 26.8771C23.1748 26.3956 22.7816 25.9141 22.3884 25.4326C22.3254 25.3511 22.2438 25.2844 22.1696 25.2103C22.0212 25.0548 21.8729 24.8733 22.062 24.6733C22.2697 24.4547 22.4774 24.5955 22.6258 24.7733C23.0635 25.2844 23.49 25.8067 23.9203 26.3215C24.0019 26.4178 24.0538 26.6253 24.2393 26.4808C24.3802 26.366 24.3023 26.2289 24.2133 26.1067ZM17.4441 21.1175C17.3885 21.2693 17.2661 21.3508 17.1103 21.3212C16.3388 21.1582 15.5525 21.0952 14.7661 21.0508C14.5955 21.0397 14.4731 20.9397 14.4731 20.7545C14.4731 20.5878 14.5733 20.473 14.7328 20.4656C15.5896 20.4285 16.4315 20.5508 17.2624 20.7434C17.2958 20.7508 17.3292 20.7841 17.3514 20.7989C17.4516 20.8915 17.4924 20.9952 17.4441 21.1175ZM18.6941 24.7288C18.6014 24.8807 18.4642 24.8844 18.3195 24.8288C17.8633 24.6473 17.4108 24.4584 16.936 24.3325C16.6986 24.2695 16.4612 24.2103 16.2238 24.1399C16.068 24.0917 15.9939 23.9695 16.0124 23.8102C16.0272 23.6658 16.1311 23.5547 16.272 23.5695C17.1177 23.6621 17.9041 23.9436 18.6236 24.314C18.7646 24.4584 18.7794 24.5881 18.6941 24.7288ZM20.7564 24.8214C20.6006 25.0363 20.4189 24.9585 20.2445 24.8399C19.2839 24.1658 18.2379 23.6658 17.0992 23.3621C15.5784 22.962 14.054 22.9176 12.5184 23.2547C12.4442 23.2732 12.3663 23.2917 12.2921 23.3065C12.0881 23.351 11.8878 23.3584 11.8137 23.1139C11.7358 22.8583 11.9249 22.7694 12.1215 22.7102C12.6185 22.5583 13.1304 22.4805 13.6497 22.4398C16.1422 22.2546 18.4308 22.8398 20.4968 24.2584C20.5487 24.2955 20.5969 24.3362 20.634 24.3621C20.7861 24.5029 20.8825 24.6436 20.7564 24.8214Z" fill="#78CABB"/>
<path d="M0.192875 27.9365C0.122402 28.1588 0.0593463 28.381 0 28.6032C0.00741829 28.3254 0.0704737 28.1032 0.192875 27.9365Z" fill="#00AE8A"/>
<path d="M0.608222 30.481C0.48953 31.2885 0.437602 32.1034 0.474693 32.9182C0.478402 32.9812 0.485821 33.0442 0.508076 33.096C0.289236 33.059 0.166834 32.9516 0.0963607 32.7405V32.7182C0.077815 31.3996 0.244726 30.0773 0.604513 28.7587C0.715788 28.3476 0.860444 27.9438 0.997683 27.5364L1.06074 27.5253C1.16459 27.5142 1.27216 27.4994 1.37602 27.4919C1.01994 28.4402 0.767716 29.4365 0.608222 30.481Z" fill="#00AE8A"/>
<path d="M1.47257 31.9663C1.45774 32.3293 1.45774 32.6885 1.47257 33.0404C1.31308 33.0626 1.17213 33.0849 1.04602 33.096C1.07198 33.0441 1.08311 32.9849 1.09053 32.9182C1.09795 32.8404 1.09424 32.7626 1.09424 32.6848C1.08682 30.8069 1.41323 29.055 2.07345 27.4363C2.21069 27.4252 2.35164 27.4178 2.48888 27.4104C1.87316 28.8549 1.53192 30.3773 1.47257 31.9663Z" fill="#00AE8A"/>
<path d="M3.42359 32.8813C3.30861 32.8813 3.18992 32.885 3.07122 32.8887C3.05639 32.1331 3.09719 31.3812 3.2233 30.6367C3.24926 30.4923 3.24555 30.3552 3.13428 30.2404C2.9414 30.0626 2.68176 30.1885 2.61871 30.5145C2.46292 31.3108 2.42212 32.1183 2.4518 32.9258C2.32198 32.9369 2.19586 32.948 2.06604 32.9628C2.02153 31.1516 2.39616 29.2959 3.19362 27.3958H3.19733C3.33086 27.3958 3.46068 27.3995 3.59421 27.3995C3.38279 27.8476 3.19362 28.318 3.02671 28.807C2.9414 29.0514 2.76707 29.3811 3.15282 29.4959C3.51261 29.5996 3.54599 29.2366 3.61647 29.007C3.7908 28.4588 4.00222 27.9328 4.24702 27.4254C4.38797 27.4365 4.52892 27.4439 4.66986 27.455C3.7537 29.1922 3.33828 31.0034 3.42359 32.8813Z" fill="#00AE8A"/>
<path d="M7.41822 33.2294C7.43305 33.4035 7.45531 33.5776 7.48127 33.748C7.35516 33.6887 7.22534 33.6295 7.09181 33.5739C7.06956 33.4146 7.05101 33.2591 7.03989 33.0961C7.0065 32.6813 7.03247 32.2701 7.03989 31.8553C7.04359 31.6664 6.98054 31.5145 6.76912 31.4923C6.5577 31.4701 6.46497 31.6071 6.43159 31.7923C6.41675 31.8812 6.40933 31.9738 6.40562 32.0627C6.37595 32.4961 6.37966 32.9146 6.42046 33.322C6.30177 33.285 6.17936 33.248 6.05696 33.2146C6.02729 32.8405 6.02358 32.4664 6.04213 32.0886C6.04954 31.959 6.06067 31.8293 5.95311 31.7293C5.86038 31.6442 5.75281 31.6108 5.63412 31.6553C5.4635 31.7256 5.43383 31.8849 5.42641 32.0405C5.40786 32.3849 5.40786 32.7257 5.42641 33.0665C5.30401 33.0405 5.1816 33.0183 5.05549 32.9998C5.02953 32.2886 5.07775 31.559 5.20386 30.8108C5.31142 30.1848 5.5043 29.581 5.71572 28.9847C5.77878 28.8069 5.77878 28.6402 5.59332 28.5513C5.37819 28.4476 5.25208 28.5847 5.15564 28.7551C5.11855 28.8217 5.09629 28.8958 5.06662 28.9699C4.58072 30.2848 4.36559 31.6034 4.41752 32.9294C4.29512 32.9183 4.17272 32.9109 4.05032 32.9035C3.97613 31.0145 4.41381 29.1736 5.32255 27.5291C5.45237 27.5439 5.58219 27.5624 5.7083 27.5809C5.64896 27.7143 5.64896 27.8439 5.81958 27.955C6.1126 28.1439 6.24613 27.8957 6.36482 27.6883C6.49093 27.7143 6.61704 27.7365 6.73944 27.7661C6.27209 28.5365 5.93085 29.3736 5.69717 30.2737C5.63783 30.5144 5.44495 30.8589 5.85296 30.9515C6.24613 31.0367 6.24242 30.6515 6.30177 30.407C6.5169 29.5181 6.8841 28.681 7.37371 27.9217C7.49982 27.955 7.62222 27.9883 7.74833 28.0254C7.70753 28.0883 7.66302 28.1513 7.62593 28.218C7.22534 28.8884 6.89523 29.5885 6.69123 30.3441C6.64301 30.5293 6.66897 30.6922 6.86556 30.7626C7.08069 30.8367 7.21051 30.7219 7.28098 30.5256C7.33291 30.3811 7.38113 30.2329 7.43305 30.0848C7.67044 29.407 7.98943 28.7847 8.37889 28.2291C8.49758 28.2698 8.61627 28.3143 8.73125 28.3587C7.70753 29.7662 7.26985 31.396 7.41822 33.2294Z" fill="#00AE8A"/>
<path d="M10.3485 35.6038C10.1222 35.5001 9.9034 35.3779 9.67715 35.2297H9.67344C9.03547 34.0667 8.85743 32.7962 9.10594 31.4257C9.13561 31.2517 9.20609 31.0702 9.06885 30.9035C8.98725 30.822 8.8871 30.8035 8.78324 30.8331C8.59408 30.8887 8.54957 31.059 8.51248 31.2257C8.2788 32.348 8.33073 33.4259 8.66826 34.463C8.51248 34.3519 8.35298 34.2445 8.19349 34.1444C7.86338 32.8518 7.9561 31.5146 8.46426 30.1331C8.67568 29.5626 8.96128 29.0441 9.31736 28.5774C9.43234 28.6255 9.54733 28.6774 9.66231 28.7293C9.46202 28.9848 9.28769 29.2552 9.13561 29.5404C9.03176 29.7367 8.89823 29.959 9.16158 30.1182C9.43234 30.2775 9.55845 30.0627 9.67344 29.8627C9.84777 29.5626 10.0406 29.2774 10.2595 29.0108C10.3708 29.0663 10.4783 29.1219 10.5859 29.1811C9.12078 30.9368 8.86484 33.5889 10.3485 35.6038Z" fill="#00AE8A"/>
<path d="M11.1868 35.0777C11.4131 35.3851 11.643 35.6889 11.8693 35.9963C11.7024 35.9815 11.5392 35.9593 11.3797 35.9296C11.2795 35.8037 11.1757 35.6778 11.0718 35.5518C9.55849 33.748 9.67347 31.1589 11.1423 29.4958C11.2462 29.5551 11.3463 29.6144 11.4464 29.681C10.1 31.1071 9.96279 33.4072 11.1868 35.0777Z" fill="#00AE8A"/>
<path d="M15.1147 35.4111C15.2445 35.5963 15.367 35.7889 15.4856 35.9815C15.3373 35.9815 15.1926 35.9815 15.048 35.9815C14.5435 35.2 13.9946 34.4444 13.4122 33.711C13.1229 33.3517 12.956 32.9665 12.9449 32.5072C12.9412 32.2924 12.8781 32.1035 12.6259 32.1072C12.3588 32.1146 12.3403 32.3257 12.3329 32.5294C12.3032 33.1813 12.6036 33.6999 12.9931 34.1851C13.4605 34.7703 13.8981 35.3667 14.3098 35.9815C14.1615 35.9815 14.0131 35.9778 13.8685 35.9778C13.7794 35.8445 13.6904 35.7148 13.6088 35.5926C13.4345 35.4259 13.2935 35.3667 13.1378 35.4704C12.982 35.5741 12.9783 35.7259 13.0562 35.8815C13.071 35.9111 13.0895 35.9408 13.1081 35.9741C13.0413 35.9741 12.9671 35.9778 12.9004 35.9852C12.8225 35.9926 12.7446 35.9963 12.6704 36C12.3811 35.5963 12.0806 35.2037 11.7691 34.8185C10.6378 33.3962 10.7194 31.3812 11.9731 30.0626L12.0028 30.033C12.1029 30.1033 12.2068 30.17 12.3032 30.2404C12.0324 30.5108 11.8025 30.833 11.6318 31.196C11.0718 32.3961 11.3425 33.9295 12.2735 34.874C12.4071 35.0074 12.5554 35.0815 12.7186 34.9629C12.9041 34.8259 12.867 34.6481 12.7557 34.4851C12.6593 34.3444 12.548 34.2184 12.4516 34.0814C11.7097 33.0332 11.8136 31.6701 12.7038 30.7367C12.7409 30.6997 12.7817 30.6589 12.8188 30.6256C12.9152 30.6997 13.0079 30.7738 13.1044 30.8478C13.0005 30.9367 12.9078 31.0367 12.8188 31.1479C12.6148 31.4108 12.6704 31.6738 12.9338 31.722C13.1007 31.7516 13.1897 31.6405 13.2861 31.5331C13.3826 31.4256 13.4864 31.3293 13.594 31.2516C13.6904 31.333 13.7869 31.4108 13.8796 31.496C13.798 31.5479 13.7201 31.6108 13.6496 31.6849C13.186 32.1627 13.1934 32.8517 13.6496 33.4517C14.1541 34.0925 14.6548 34.7444 15.1147 35.4111Z" fill="#00AE8A"/>
<path d="M14.9182 32.4627C14.8774 32.4182 14.8329 32.3738 14.7921 32.3293C14.8255 32.3553 14.8552 32.3849 14.8848 32.4182L14.9182 32.4627Z" fill="#00AE8A"/>
<path d="M16.921 35.2665C16.3127 34.2998 15.6451 33.3701 14.9181 32.4626C15.5301 33.0923 16.0791 33.7776 16.5575 34.5332C16.7059 34.7628 16.9062 34.9999 16.921 35.2665Z" fill="#00AE8A"/>
<path d="M15.0555 33.648C15.5933 34.3703 16.1015 35.1111 16.5725 35.8778C16.465 35.9334 16.3426 35.9593 16.2164 35.9704C15.6081 34.9963 14.9553 34.0518 14.2283 33.1628C13.876 32.7332 13.8686 32.285 14.2024 32.0331C14.2617 31.9887 14.3248 31.9553 14.3841 31.9331C14.5214 32.0627 14.6549 32.1924 14.7884 32.3257C14.6809 32.2442 14.551 32.2109 14.4027 32.3331C14.2209 32.4887 14.3062 32.6628 14.4212 32.8146C14.6252 33.0961 14.8478 33.3665 15.0555 33.648Z" fill="#00AE8A"/>
<path d="M50.7597 21.4322V23.8732C50.7597 26.5511 48.5713 28.7328 45.871 28.7328H31.8801V8.06836H44.7101C47.3695 8.06836 49.5394 10.213 49.5394 12.8909V15.9985C49.5394 16.6467 49.4021 17.2764 49.1647 17.8468C50.1477 18.7358 50.7597 20.0136 50.7597 21.4322ZM35.5225 16.5689H43.9386C45.0031 16.5689 45.8896 15.7022 45.8896 14.6392V13.6354C45.8896 12.5724 45.0031 11.7056 43.9386 11.7056H35.5225V16.5689ZM47.0913 22.1212C47.0913 21.0767 46.2456 20.2136 45.1811 20.2136H35.5225V25.0955H45.1811C46.2456 25.0955 47.0913 24.2287 47.0913 23.1879V22.1212Z" fill="#00AE8A"/>
<path d="M53.1224 8.06836H56.7685V28.7105H53.1224V8.06836Z" fill="#00AE8A"/>
<path d="M74.565 20.6025V22.2767C74.565 25.8399 71.6681 28.7327 68.0999 28.7327H65.2031C61.6349 28.7327 58.738 25.8399 58.738 22.2767V20.6025C58.738 17.0393 61.6349 14.1465 65.2031 14.1465H68.0999C71.6681 14.1502 74.565 17.043 74.565 20.6025ZM70.9189 20.4654C70.9189 18.9913 69.7171 17.7875 68.2372 17.7875H65.0658C63.5896 17.7875 62.3841 18.9876 62.3841 20.4654V22.4137C62.3841 23.8916 63.5859 25.0917 65.0658 25.0917H68.2372C69.7134 25.0917 70.9189 23.8916 70.9189 22.4137V20.4654Z" fill="#00AE8A"/>
<path d="M80.1843 20.4469V22.3952C80.1843 23.8693 81.3861 25.0731 82.8623 25.0731H86.0151C86.8645 25.0731 87.6323 24.6583 88.1256 24.0508L90.6664 26.588C89.4832 27.8881 87.7695 28.7141 85.8779 28.7141H82.9996C79.4314 28.7141 76.5345 25.8213 76.5345 22.2581V20.5839C76.5345 17.0207 79.4314 14.1501 82.9996 14.1501H85.8779C87.7695 14.1501 89.4832 14.9576 90.6664 16.2762L88.1256 18.8134C87.6323 18.1838 86.8645 17.7911 86.0151 17.7911H82.8623C81.3861 17.7911 80.1843 18.969 80.1843 20.4469Z" fill="#00AE8A"/>
<path d="M104.798 23.125L108.285 28.7142H103.99L97.4652 18.2431C96.7567 18.7135 96.2819 19.5432 96.2819 20.447V28.7142H92.6359V8.06836H96.2819V16.4726C96.3005 16.4541 96.3228 16.4541 96.3228 16.4319C97.0905 15.4466 98.1365 14.7392 99.3568 14.3836C99.8687 14.2243 100.44 14.1466 101.011 14.1466H105.406V17.7875H101.464L104.798 23.125Z" fill="#00AE8A"/>
<path d="M114.297 25.0918H124.664V28.7328H114.297H110.651V25.0918V8.06836H114.297V25.0918Z" fill="#78CABB"/>
<path d="M131.289 10.1944C131.289 11.376 130.343 12.3205 129.16 12.3205C127.977 12.3205 127.031 11.376 127.031 10.1944C127.031 9.03509 127.977 8.06836 129.16 8.06836C130.343 8.06836 131.289 9.03139 131.289 10.1944ZM127.327 14.1503H130.974V28.7142H127.327V14.1503Z" fill="#78CABB"/>
<path d="M146.737 23.2397C147.112 23.8101 147.29 24.4027 147.249 24.9917C147.149 26.6436 145.536 27.9437 142.932 28.4734C142.146 28.6512 141.315 28.729 140.469 28.729C139.56 28.729 138.696 28.629 137.906 28.4549C136.979 28.2586 136.152 27.9252 135.443 27.5104C134.616 27.0177 133.945 26.3881 133.492 25.6399L133.277 25.3065L136.508 23.6916L136.723 24.0064C137.116 24.6546 137.906 24.9917 138.518 25.1472C139.245 25.3621 140.135 25.4436 141.022 25.3843C141.789 25.325 142.52 25.188 143.051 24.9509C143.21 24.8917 143.325 24.8324 143.425 24.7731C143.325 24.6954 143.169 24.5583 142.932 24.4176C142.617 24.2027 141.118 23.5916 139.679 22.9989C137.728 22.1915 135.699 21.347 135.128 20.9507C134.538 20.5358 134.082 20.0839 133.767 19.632C133.392 19.0616 133.214 18.4727 133.255 17.8616C133.355 16.2281 134.968 14.9095 137.591 14.3798C139.208 14.0465 141.04 14.0465 142.617 14.3983C143.544 14.6132 144.371 14.928 145.079 15.3614C145.907 15.854 146.559 16.4837 147.031 17.2319L147.227 17.5652L143.996 19.1802L143.8 18.8468C143.407 18.1986 142.598 17.8838 142.008 17.706C141.259 17.5097 140.373 17.4319 139.505 17.4912C138.737 17.5319 138.006 17.6875 137.453 17.906C137.294 17.9838 137.179 18.043 137.097 18.0838C137.198 18.1838 137.353 18.2986 137.572 18.4579C137.906 18.6542 139.386 19.2839 140.825 19.8765C142.795 20.684 144.827 21.51 145.376 21.9026C145.97 22.3359 146.441 22.7693 146.737 23.2397Z" fill="#78CABB"/>
<path d="M155.569 25.0918H158.366V28.7328H155.706C152.138 28.7328 149.241 25.84 149.241 22.2767V8.06836H152.887V14.7799C153.755 14.3651 154.701 14.1503 155.706 14.1503H157.776V17.7913H155.569C154.093 17.7913 152.887 18.9913 152.887 20.4692V22.4175C152.887 23.8917 154.089 25.0918 155.569 25.0918Z" fill="#78CABB"/>
</svg>
