<svg width="189" height="46" viewBox="0 0 189 46" fill="none" xmlns="http://www.w3.org/2000/svg">
<rect width="189" height="46" fill="#1E1E1E"/>
<g clip-path="url(#clip0_17_6266)">
<rect width="1440" height="5029" transform="translate(-75 -27)" fill="white"/>
<g filter="url(#filter0_f_17_6266)">
<circle cx="-88.5" cy="171.5" r="167.5" fill="#94FFE8"/>
</g>
<g filter="url(#filter1_dd_17_6266)">
<rect x="-75" y="-27" width="1440" height="100" fill="white"/>
</g>
<path d="M1.93808 1.95288C1.43933 2.55579 0.984331 3.19801 0.564331 3.87519C0.656206 2.77423 1.05433 2.1888 1.93808 1.95288Z" fill="#00AE8A"/>
<path d="M1.41754 14.7669C0.542545 14.7494 0.53817 14.4567 0.53817 13.1242C0.533795 11.2587 0.52942 9.38877 0.533795 7.52325V7.51889C1.41754 5.34755 2.65129 3.43398 4.27004 1.80875H4.27442C5.25442 1.80001 6.25192 1.80001 7.29754 1.80438C3.04067 4.90192 1.03692 9.28392 1.41754 14.7669Z" fill="#00AE8A"/>
<path d="M27.7637 8.06069C26.3375 6.93352 24.9069 5.80634 23.4675 4.69228C19.2544 1.43746 13.44 1.47241 9.25749 4.75781C6.20374 7.15633 4.61561 11.0097 4.89124 14.6927C4.23061 14.6839 3.56999 14.6883 2.90061 14.7145C2.58999 9.10922 5.58686 4.12869 10.08 1.80881C10.4956 1.81318 10.92 1.81318 11.3575 1.81318C13.7375 1.94862 16.7912 1.52047 19.8056 2.00978C23.3012 2.57774 26.2456 4.95878 27.7637 8.06069Z" fill="#00AE8A"/>
<path d="M28.6475 15.3918C28.3194 17.0782 27.6194 18.6379 26.425 20.049C25.865 20.7087 25.3663 20.8311 24.5919 20.3723C23.7344 19.8612 22.8813 19.3806 22.0063 18.9437C22.3694 18.9699 22.6625 18.6685 22.7675 18.1049C22.6975 17.9651 22.6538 17.7641 22.5313 17.6636C20.6281 16.152 18.725 14.6447 16.7956 13.1637C16.5069 12.9452 16.0956 13.0282 15.8419 13.3515C15.54 13.7403 15.6494 14.1379 15.9906 14.4088C17.7669 15.8287 19.5388 17.2573 21.3631 18.6204C19.2806 17.6024 17.15 16.7811 14.9669 16.1563H14.9625C14.8969 16.0995 14.8313 16.0384 14.7656 15.9772C13.5625 14.8763 13.37 13.0938 14.2756 12.0321C15.2775 10.8613 16.8306 10.7171 18.2263 11.7001C18.7688 12.0845 19.2806 12.5083 19.8013 12.9234C21.7175 14.435 23.6294 15.9466 25.5413 17.4626C25.9656 17.799 26.4163 17.9956 26.8275 17.5194C27.2431 17.0389 27.0069 16.5889 26.5869 16.2612C23.94 14.1729 21.3369 12.0277 18.6069 10.0486C17.15 8.99137 15.4569 9.15739 13.965 10.1317C12.5125 11.0841 11.8869 12.504 12.1144 14.6622C12.1363 14.9156 12.2106 15.2039 12.3375 15.4966C11.6288 15.3481 10.9156 15.217 10.1981 15.1122C9.63815 12.5608 10.71 9.76903 13.1644 8.33167C15.47 6.98168 18.2263 7.18265 20.5319 8.96516C23.1306 10.9748 25.6944 13.037 28.2581 15.086C28.3894 15.1996 28.5163 15.3 28.6475 15.3918Z" fill="#00AE8A"/>
<path d="M28.8662 13.4869C26.2587 11.4248 23.66 9.35835 21.0219 7.33119C19.3944 6.08169 17.5044 5.69722 15.3694 5.90256C12.18 6.37877 9.9006 8.17438 8.85935 11.32C8.44373 12.5739 8.32123 13.7709 8.47873 14.9068C7.83998 14.8369 7.20123 14.7889 6.55373 14.7539C6.5406 14.068 6.48373 13.3734 6.57123 12.7049C7.05685 8.98263 8.9731 6.2477 12.4337 4.7317C15.9512 3.18948 19.3331 3.67443 22.3912 5.90256C24.5481 7.47536 26.6087 9.17486 28.7 10.8394C28.8093 11.4074 28.8706 11.9884 28.8837 12.5739C28.8837 12.8753 28.8794 13.1811 28.8662 13.4869Z" fill="#00AE8A"/>
<path d="M1.90318 21.0276C1.43943 21.3946 0.984434 21.779 0.560059 22.1897C0.586309 21.8664 0.634434 21.6392 0.739434 21.4732L0.743809 21.4645C0.813809 21.3509 0.905684 21.2679 1.03693 21.2067L1.04131 21.2023C1.23818 21.1062 1.51818 21.0582 1.90318 21.0276Z" fill="#78CABB"/>
<path d="M6.05496 20.9927C5.15809 21.5257 4.29184 22.1111 3.46059 22.7621C2.37559 23.6097 1.41746 24.5708 0.551211 25.6237C0.551211 25.4009 0.546836 25.1825 0.542461 24.9596C1.22934 24.1907 1.96871 23.4611 2.77371 22.7708C2.97934 22.5917 3.13246 22.4038 2.92246 22.1548C2.70371 21.897 2.48934 22.0587 2.28809 22.2203C1.67996 22.7097 1.13309 23.2601 0.739336 23.7014C0.673711 23.7757 0.603711 23.8412 0.538086 23.9155V23.2601C1.29059 22.4912 2.10434 21.7747 2.98809 21.1238C3.05809 21.0713 3.12809 21.0189 3.19809 20.9665C3.45621 20.9577 3.70996 20.9534 3.96371 20.9534C3.86746 21.0189 3.77559 21.0844 3.68371 21.1543C3.52621 21.3072 3.44746 21.4864 3.59621 21.6786C3.73184 21.849 3.90684 21.849 4.08621 21.7354C4.16496 21.6873 4.24371 21.6437 4.32246 21.5912C4.63309 21.3728 4.94809 21.1631 5.26746 20.9621C5.53434 20.9708 5.79246 20.9796 6.05496 20.9927Z" fill="#78CABB"/>
<path d="M17.3206 23.5702C16.8262 23.5833 16.3231 23.6183 15.8287 23.6751C12.3243 24.0857 9.22684 25.427 6.61934 27.7337C6.41809 27.7163 6.21684 27.6988 6.01996 27.6901C7.26246 26.5192 8.93371 25.4008 10.6443 24.6581C10.8281 24.5794 11.0075 24.5008 11.1868 24.409C11.3706 24.3129 11.4625 24.1556 11.375 23.9547C11.2918 23.7581 11.1125 23.7144 10.9156 23.7668C10.8106 23.7974 10.7143 23.8323 10.6137 23.876C8.46559 24.8066 6.58871 26.0517 5.00934 27.6464C4.81246 27.642 4.61559 27.6376 4.41871 27.6376C4.48871 27.5634 4.55434 27.4891 4.62434 27.4192C4.80371 27.2357 4.94809 27.0435 4.75121 26.7813C4.45809 26.5585 4.26121 26.7551 4.08184 26.9474C3.85871 27.1833 3.63996 27.4192 3.42996 27.6595C3.22871 27.6638 3.02309 27.677 2.82184 27.6857C2.86996 27.642 2.91809 27.5896 2.95746 27.5459C3.15871 27.3187 3.33371 27.0653 3.54371 26.8469C5.08371 25.2304 6.86871 23.9459 8.86371 22.9498C9.08246 22.8406 9.30121 22.7314 9.50246 22.5959C9.63809 22.5042 9.68184 22.3469 9.60746 22.1853C9.53309 22.0236 9.39309 21.9712 9.23121 21.9974C9.11309 22.0192 8.99496 22.0629 8.88559 22.1154C6.77246 23.1726 4.81684 24.4527 3.20684 26.2046C2.93559 26.493 2.65559 26.777 2.38871 27.0697C2.21371 27.2619 2.07371 27.4935 2.30559 27.7119L2.32309 27.7294C2.18746 27.7381 2.05184 27.7512 1.91184 27.76C1.67996 27.7818 1.47871 27.7774 1.30809 27.7425C1.35621 27.677 1.40871 27.6114 1.46121 27.5415C2.41059 26.3182 3.47371 25.2085 4.77309 24.1469C4.85184 24.0726 4.95684 23.8891 4.77309 23.6794C4.59371 23.4785 4.38371 23.5309 4.20434 23.6838C3.76246 24.0551 3.29434 24.409 2.88309 24.8153C2.08246 25.6148 1.34309 26.4537 0.682461 27.3406C0.603711 27.1964 0.551211 27.0129 0.538086 26.7857C0.765586 26.5192 0.979961 26.2352 1.20746 25.9731C2.97934 23.9197 5.05746 22.3163 7.39809 21.0974C7.66496 21.1193 7.92746 21.1455 8.18996 21.1717C7.41559 21.5343 6.69809 21.9625 6.04621 22.3731C5.82309 22.5785 5.76184 22.7226 5.87559 22.893C5.99371 23.0678 6.16871 23.1377 6.35246 23.0241C7.27121 22.4823 8.18996 21.9493 9.16121 21.5081C9.25746 21.4644 9.32309 21.3989 9.34934 21.3202H9.35371C9.73434 21.3727 10.1106 21.4382 10.4868 21.5081C10.4081 21.6304 10.3818 21.744 10.4343 21.8663C10.4956 22.0105 10.6137 22.0848 10.7625 22.0673C10.9287 22.0455 11.0906 21.9974 11.2481 21.945C11.4231 21.8838 11.5937 21.827 11.7687 21.7702H11.7731C12.0531 21.8314 12.3375 21.8969 12.6175 21.9712C11.1125 22.3993 9.62496 23.0154 8.15934 23.8192C7.23184 24.326 6.36121 24.9202 5.56496 25.5799C5.37684 25.7852 5.34621 25.9818 5.46434 26.1304C5.63059 26.327 5.81434 26.2702 5.99371 26.1522C6.07246 26.1042 6.14684 26.0474 6.21684 25.9949C8.68871 24.1425 11.2918 22.928 14.0262 22.3644C14.3237 22.4518 14.6168 22.5479 14.91 22.6484C14.2756 22.7489 13.6456 22.8887 13.02 23.0547C12.74 23.1289 12.2675 23.1377 12.3812 23.5964C12.5081 24.0945 12.9368 23.828 13.2256 23.7537C14.2887 23.4828 15.3562 23.295 16.4368 23.212H16.4456C16.7343 23.3168 17.0275 23.4435 17.3206 23.5702Z" fill="#78CABB"/>
<path d="M25.0732 37.2361C24.9769 37.3541 24.8632 37.3148 24.7407 37.2929C24.5613 37.2667 24.43 37.2798 24.3469 37.341C24.1544 37.1007 23.9575 36.8691 23.7563 36.6376L23.8132 36.5983C24.0538 36.4104 23.9575 36.1789 23.8044 35.9954C23.485 35.6065 23.1963 35.1915 22.9513 34.9905C22.0807 34.1779 21.1794 33.6143 20.2082 33.2692C19.8932 33.0158 19.5782 32.7799 19.2588 32.5439C19.3725 32.5658 19.4819 32.5876 19.5957 32.6138C22.1069 33.1905 23.6819 34.9381 25.06 36.939C25.1257 37.0395 25.1563 37.1356 25.0732 37.2361Z" fill="#78CABB"/>
<path d="M29.0806 32.5613C27.2475 30.0492 24.9287 28.1925 21.9187 27.2575C21.875 27.2444 21.8312 27.2313 21.7875 27.2138C21.5731 27.1308 21.3806 27.0041 21.4506 26.7464C21.525 26.4624 21.7612 26.4405 22.0062 26.5148C22.4525 26.6459 22.89 26.8032 23.3187 26.9866C22.8725 26.6633 22.4175 26.3532 21.9494 26.0561L21.9056 26.043C20.4269 25.6104 18.9175 25.4138 17.3775 25.4663C17.0887 25.4794 16.6731 25.5886 16.6469 25.1473C16.6162 24.6624 17.0581 24.7454 17.36 24.741C18.27 24.7236 19.1537 24.776 20.0069 24.8939C19.6612 24.7017 19.3112 24.5182 18.9612 24.3435C18.8956 24.3435 18.83 24.3391 18.7687 24.3347C15.7369 24.1512 12.8756 24.7629 10.185 26.174C9.27061 26.6546 8.41311 27.2007 7.62561 27.8386C7.83124 27.8648 8.03686 27.891 8.24249 27.926C10.1675 26.4493 12.3725 25.4881 14.8312 24.9988C14.9362 24.977 15.0412 24.9551 15.1506 24.9464C15.3694 24.9245 15.5575 24.9901 15.6056 25.226C15.6537 25.4706 15.5006 25.5973 15.2862 25.6498C14.7962 25.7677 14.2975 25.8551 13.8119 25.9905C12.145 26.4493 10.6094 27.1439 9.23124 28.0963C9.43249 28.1357 9.63373 28.1793 9.83061 28.2187C10.6531 27.69 11.55 27.2313 12.5256 26.8425C13.755 26.3532 15.0369 26.0692 16.3537 25.9425C16.5506 25.9206 16.7519 25.8944 16.9225 26.0342C17.0144 26.1347 17.0494 26.2527 17.01 26.375C16.9444 26.5847 16.7694 26.6415 16.5812 26.6546C15.9731 26.707 15.3694 26.8119 14.77 26.943C13.3437 27.2619 12.0225 27.7643 10.8194 28.4633C11.0556 28.5245 11.2919 28.59 11.5237 28.6599C11.5675 28.5813 11.655 28.5201 11.7512 28.4677C12.635 28.0002 13.5669 27.6595 14.5337 27.4366C18.5194 26.5148 22.1987 27.2051 25.5544 29.5643C25.6419 29.6255 25.725 29.691 25.7819 29.739C25.9831 29.9269 26.1406 30.1148 25.9525 30.3507C25.76 30.5953 25.5412 30.4643 25.3487 30.3201C24.1894 29.4551 22.9337 28.7779 21.5425 28.3585C18.4319 27.4148 15.3912 27.6158 12.425 28.9483L12.4162 28.9526C12.6131 29.0182 12.8056 29.0881 12.9981 29.1623L13.0244 29.1492C13.2694 29.0488 13.4969 29.0619 13.6019 29.3284L13.6237 29.3983C13.9519 29.5293 14.2756 29.6691 14.595 29.8177C15.6319 29.5075 16.7387 29.3546 17.9025 29.3502C18.0075 29.3502 18.1169 29.3589 18.2219 29.3808C18.4187 29.4201 18.5719 29.525 18.5631 29.7434C18.5544 29.9924 18.375 30.0842 18.1562 30.0798C17.6662 30.0754 17.1806 30.106 16.6906 30.1453C16.3275 30.1759 15.9687 30.2284 15.61 30.3026C15.8287 30.4119 16.0475 30.5298 16.2662 30.6478C18.7687 30.2589 21.3806 30.8138 23.4325 32.3429C23.6031 32.4696 23.7606 32.6181 23.9137 32.7667C24.0625 32.9152 24.0975 33.09 23.9531 33.256C23.8087 33.4264 23.6294 33.4002 23.4587 33.2822C23.1306 33.0594 22.82 32.8147 22.4831 32.6007C20.8556 31.5827 19.0531 31.1546 17.3031 31.2463C17.535 31.3861 17.7625 31.5303 17.9944 31.6788C20.6237 31.74 22.8287 32.8803 24.5962 35.1215C24.8894 35.4929 25.1694 35.873 25.4669 36.2443C25.5675 36.3666 25.6769 36.5545 25.8737 36.3885C26.0444 36.2487 25.9 36.1132 25.8125 35.9953C25.48 35.5584 25.1475 35.1215 24.8106 34.6846C24.6531 34.4793 24.4956 34.2521 24.745 34.0424C25.0119 33.8196 25.2219 34.0118 25.3925 34.2346C25.7075 34.6453 26.0312 35.056 26.3506 35.4667C26.4337 35.5715 26.5081 35.7157 26.6744 35.5715C26.7969 35.4579 26.7925 35.34 26.6962 35.2089C25.7687 33.99 24.8675 32.7579 23.5594 31.9016C23.3144 31.74 22.925 31.574 23.17 31.2114C23.4325 30.8138 23.7387 31.1458 23.9837 31.3206C25.1606 32.1419 26.1056 33.1948 26.9587 34.3438C27.0769 34.5055 27.1819 34.9118 27.475 34.6934C27.7506 34.488 27.4269 34.2521 27.2956 34.0817C26.8669 33.5269 26.4556 32.9545 25.9569 32.4609C25.8475 32.356 25.7556 32.2337 25.6637 32.1113C25.5369 31.9453 25.5062 31.7706 25.6594 31.6133C25.8387 31.4342 26.0225 31.4997 26.1887 31.6395C26.6 31.989 26.9194 32.4215 27.2606 32.8322C27.5056 33.1249 27.7331 33.4351 27.9737 33.7278C28.0525 33.8283 28.1181 33.9987 28.2931 33.8676C28.4462 33.754 28.4287 33.6055 28.315 33.4701C27.8556 32.9021 27.3919 32.3342 26.9281 31.7662C26.8537 31.6701 26.7575 31.5915 26.67 31.5041C26.495 31.3206 26.32 31.1065 26.5431 30.8706C26.7881 30.6128 27.0331 30.7788 27.2081 30.9885C27.7244 31.5914 28.2275 32.2075 28.735 32.8147C28.8312 32.9283 28.8925 33.173 29.1112 33.0026C29.2775 32.8672 29.1856 32.7055 29.0806 32.5613ZM21.0962 26.6765C21.0306 26.8556 20.8862 26.9517 20.7025 26.9167C19.7925 26.7245 18.865 26.6502 17.9375 26.5978C17.7362 26.5847 17.5919 26.4667 17.5919 26.2483C17.5919 26.0517 17.71 25.9163 17.8981 25.9075C18.9087 25.8638 19.9019 26.008 20.8819 26.2352C20.9212 26.2439 20.9606 26.2833 20.9869 26.3007C21.105 26.41 21.1531 26.5323 21.0962 26.6765ZM22.5706 30.9361C22.4612 31.1152 22.2994 31.1196 22.1287 31.0541C21.5906 30.84 21.0569 30.6172 20.4969 30.4686C20.2169 30.3944 19.9369 30.3245 19.6569 30.2415C19.4731 30.1847 19.3856 30.0405 19.4075 29.8526C19.425 29.6822 19.5475 29.5512 19.7137 29.5687C20.7112 29.6779 21.6387 30.0099 22.4875 30.4468C22.6537 30.6172 22.6712 30.7701 22.5706 30.9361ZM25.0031 31.0453C24.8194 31.2987 24.605 31.207 24.3994 31.0672C23.2662 30.272 22.0325 29.6822 20.6894 29.324C18.8956 28.8522 17.0975 28.7997 15.2862 29.1973C15.1987 29.2191 15.1069 29.241 15.0194 29.2585C14.7787 29.3109 14.5425 29.3196 14.455 29.0313C14.3631 28.7298 14.5862 28.625 14.8181 28.5551C15.4044 28.3759 16.0081 28.2842 16.6206 28.2361C19.5606 28.0177 22.26 28.708 24.6969 30.3813C24.7581 30.425 24.815 30.473 24.8587 30.5036C25.0381 30.6696 25.1519 30.8356 25.0031 31.0453Z" fill="#78CABB"/>
<path d="M0.74813 34.7197C0.665005 34.9819 0.59063 35.244 0.52063 35.5061C0.52938 35.1785 0.603755 34.9163 0.74813 34.7197Z" fill="#00AE8A"/>
<path d="M1.23808 37.721C1.09808 38.6734 1.03683 39.6346 1.08058 40.5957C1.08495 40.67 1.0937 40.7443 1.11995 40.8054C0.86183 40.7617 0.717455 40.6351 0.63433 40.386V40.3598C0.612455 38.8045 0.80933 37.2448 1.2337 35.6895C1.36495 35.2045 1.53558 34.7283 1.69745 34.2477L1.77183 34.2346C1.89433 34.2215 2.0212 34.2041 2.14371 34.1953C1.7237 35.3137 1.4262 36.489 1.23808 37.721Z" fill="#00AE8A"/>
<path d="M2.25752 39.4731C2.24002 39.9012 2.24002 40.325 2.25752 40.7401C2.06939 40.7663 1.90314 40.7925 1.75439 40.8056C1.78502 40.7444 1.79814 40.6745 1.80689 40.5959C1.81564 40.5041 1.81127 40.4124 1.81127 40.3207C1.80252 38.1056 2.18752 36.0392 2.96627 34.1299C3.12814 34.1168 3.29439 34.1081 3.45627 34.0994C2.73002 35.8032 2.32752 37.5988 2.25752 39.4731Z" fill="#00AE8A"/>
<path d="M4.5588 40.5521C4.42317 40.5521 4.28317 40.5565 4.14317 40.5608C4.12567 39.6696 4.1738 38.7827 4.32255 37.9046C4.35317 37.7342 4.3488 37.5725 4.21755 37.4371C3.99005 37.2274 3.6838 37.3759 3.60942 37.7604C3.42567 38.6997 3.37755 39.6521 3.41255 40.6045C3.25942 40.6176 3.11067 40.6307 2.95755 40.6482C2.90505 38.5118 3.34692 36.323 4.28755 34.0818H4.29192C4.44942 34.0818 4.60255 34.0862 4.76005 34.0862C4.51067 34.6148 4.28755 35.1696 4.09067 35.7463C3.99005 36.0347 3.78442 36.4235 4.23942 36.5589C4.6638 36.6813 4.70317 36.2531 4.7863 35.9823C4.99192 35.3357 5.2413 34.7153 5.53005 34.1167C5.6963 34.1298 5.86255 34.1386 6.0288 34.1517C4.94817 36.2007 4.45817 38.3371 4.5588 40.5521Z" fill="#00AE8A"/>
<path d="M9.2706 40.9627C9.2881 41.1681 9.31435 41.3734 9.34498 41.5744C9.19623 41.5045 9.0431 41.4346 8.8856 41.369C8.85935 41.1812 8.83748 40.9977 8.82435 40.8054C8.78498 40.3161 8.8156 39.8312 8.82435 39.3419C8.82873 39.1191 8.75435 38.9399 8.50498 38.9137C8.2556 38.8875 8.14623 39.0492 8.10685 39.2676C8.08935 39.3725 8.0806 39.4817 8.07623 39.5865C8.04123 40.0977 8.0456 40.5914 8.09373 41.072C7.95373 41.0283 7.80935 40.9846 7.66498 40.9453C7.62998 40.504 7.6256 40.0627 7.64748 39.6171C7.65623 39.4642 7.66935 39.3113 7.54248 39.1933C7.4331 39.0928 7.30623 39.0535 7.16623 39.106C6.96498 39.189 6.92998 39.3768 6.92123 39.5603C6.89935 39.9666 6.89935 40.3686 6.92123 40.7705C6.77685 40.7399 6.63248 40.7137 6.48373 40.6919C6.4531 39.853 6.50998 38.9924 6.65873 38.1098C6.7856 37.3715 7.0131 36.6594 7.26248 35.956C7.33685 35.7463 7.33685 35.5497 7.1181 35.4448C6.86435 35.3225 6.7156 35.4841 6.60185 35.6851C6.5581 35.7638 6.53185 35.8511 6.49685 35.9385C5.92373 37.4895 5.66998 39.0448 5.73123 40.6088C5.58685 40.5957 5.44248 40.587 5.2981 40.5783C5.2106 38.3501 5.72685 36.1788 6.79873 34.239C6.95185 34.2565 7.10498 34.2783 7.25373 34.3002C7.18373 34.4575 7.18373 34.6104 7.38498 34.7414C7.7306 34.9642 7.8881 34.6715 8.0281 34.4269C8.17685 34.4575 8.3256 34.4837 8.46998 34.5186C7.91873 35.4274 7.51623 36.4147 7.2406 37.4764C7.1706 37.7603 6.9431 38.1666 7.42435 38.2759C7.8881 38.3763 7.88373 37.922 7.95373 37.6336C8.20748 36.5851 8.6406 35.5977 9.2181 34.7021C9.36685 34.7414 9.51123 34.7808 9.65998 34.8244C9.61185 34.8987 9.55935 34.973 9.5156 35.0516C9.0431 35.8424 8.65373 36.6681 8.4131 37.5594C8.35623 37.7778 8.38685 37.97 8.61873 38.053C8.87248 38.1404 9.0256 38.005 9.10873 37.7734C9.16998 37.6031 9.22685 37.4283 9.2881 37.2535C9.5681 36.454 9.94435 35.7201 10.4037 35.0647C10.5437 35.1128 10.6837 35.1652 10.8194 35.2176C9.61185 36.8778 9.0956 38.8001 9.2706 40.9627Z" fill="#00AE8A"/>
<path d="M12.7269 43.7631C12.4601 43.6408 12.2019 43.4966 11.9351 43.3219H11.9307C11.1782 41.95 10.9682 40.4515 11.2613 38.835C11.2963 38.6297 11.3794 38.4156 11.2176 38.219C11.1213 38.1229 11.0032 38.101 10.8807 38.136C10.6576 38.2015 10.6051 38.4025 10.5613 38.5991C10.2857 39.9229 10.3469 41.1942 10.7451 42.4175C10.5613 42.2864 10.3732 42.1597 10.1851 42.0418C9.79568 40.517 9.90506 38.9399 10.5044 37.3103C10.7538 36.6375 11.0907 36.0258 11.5107 35.4753C11.6463 35.5321 11.7819 35.5933 11.9176 35.6545C11.6813 35.9559 11.4757 36.2749 11.2963 36.6113C11.1738 36.8428 11.0163 37.1049 11.3269 37.2928C11.6463 37.4807 11.7951 37.2273 11.9307 36.9913C12.1363 36.6375 12.3638 36.3011 12.6219 35.9865C12.7532 36.052 12.8801 36.1176 13.0069 36.1875C11.2788 38.2583 10.9769 41.3864 12.7269 43.7631Z" fill="#00AE8A"/>
<path d="M13.7157 43.1427C13.9825 43.5054 14.2538 43.8636 14.5207 44.2262C14.3238 44.2088 14.1313 44.1825 13.9432 44.1476C13.825 43.9991 13.7025 43.8505 13.58 43.702C11.795 41.5743 11.9307 38.5205 13.6632 36.5588C13.7857 36.6287 13.9038 36.6986 14.0219 36.7773C12.4338 38.4593 12.2719 41.1724 13.7157 43.1427Z" fill="#00AE8A"/>
<path d="M18.3488 43.536C18.5019 43.7545 18.6463 43.9816 18.7863 44.2088C18.6113 44.2088 18.4406 44.2088 18.27 44.2088C17.675 43.287 17.0275 42.3957 16.3406 41.5307C15.9994 41.1069 15.8025 40.6525 15.7894 40.1108C15.785 39.8574 15.7106 39.6346 15.4131 39.639C15.0981 39.6477 15.0763 39.8967 15.0675 40.137C15.0325 40.9059 15.3869 41.5176 15.8463 42.0899C16.3975 42.7802 16.9138 43.4836 17.3994 44.2088C17.2244 44.2088 17.0494 44.2044 16.8788 44.2044C16.7738 44.0472 16.6688 43.8943 16.5725 43.7501C16.3669 43.5535 16.2006 43.4836 16.0169 43.6059C15.8331 43.7282 15.8288 43.9074 15.9206 44.0909C15.9381 44.1258 15.96 44.1608 15.9819 44.2001C15.9031 44.2001 15.8156 44.2044 15.7369 44.2132C15.645 44.2219 15.5531 44.2263 15.4656 44.2307C15.1244 43.7544 14.77 43.2913 14.4025 42.837C13.0681 41.1593 13.1644 38.7827 14.6431 37.2273L14.6781 37.1924C14.7963 37.2754 14.9188 37.354 15.0325 37.437C14.7131 37.756 14.4419 38.1361 14.2406 38.5642C13.58 39.9797 13.8994 41.7885 14.9975 42.9025C15.155 43.0598 15.33 43.1472 15.5225 43.0074C15.7413 42.8457 15.6975 42.636 15.5663 42.4438C15.4525 42.2778 15.3213 42.1292 15.2075 41.9676C14.3325 40.7312 14.455 39.1234 15.505 38.0225C15.5488 37.9788 15.5969 37.9307 15.6406 37.8914C15.7544 37.9788 15.8638 38.0662 15.9775 38.1535C15.855 38.2584 15.7456 38.3764 15.6406 38.5074C15.4 38.8176 15.4656 39.1278 15.7763 39.1846C15.9731 39.2195 16.0781 39.0885 16.1919 38.9618C16.3056 38.8351 16.4281 38.7215 16.555 38.6297C16.6688 38.7259 16.7825 38.8176 16.8919 38.9181C16.7956 38.9793 16.7038 39.0535 16.6206 39.1409C16.0738 39.7045 16.0825 40.5171 16.6206 41.2249C17.2156 41.9807 17.8063 42.7496 18.3488 43.536Z" fill="#00AE8A"/>
<path d="M18.1169 40.0584C18.0688 40.006 18.0163 39.9535 17.9681 39.9011C18.0075 39.9317 18.0425 39.9667 18.0775 40.006L18.1169 40.0584Z" fill="#00AE8A"/>
<path d="M20.4793 43.3656C19.7618 42.2253 18.9743 41.1287 18.1168 40.0583C18.8387 40.8011 19.4862 41.6093 20.0506 42.5006C20.2256 42.7714 20.4618 43.051 20.4793 43.3656Z" fill="#00AE8A"/>
<path d="M18.2788 41.4564C18.9131 42.3083 19.5125 43.1821 20.0681 44.0865C19.9413 44.152 19.7969 44.1826 19.6481 44.1957C18.9306 43.0467 18.1606 41.9326 17.3031 40.8841C16.8875 40.3773 16.8788 39.8486 17.2725 39.5516C17.3425 39.4991 17.4169 39.4598 17.4869 39.4336C17.6488 39.5865 17.8063 39.7394 17.9638 39.8967C17.8369 39.8006 17.6838 39.7613 17.5088 39.9054C17.2944 40.0889 17.395 40.2943 17.5306 40.4734C17.7713 40.8054 18.0338 41.1244 18.2788 41.4564Z" fill="#00AE8A"/>
<path d="M60.3925 27.0479V29.9269C60.3925 33.0857 57.8113 35.6589 54.6263 35.6589H38.1238V11.2849H53.2569C56.3938 11.2849 58.9532 13.8145 58.9532 16.9732V20.6387C58.9532 21.4033 58.7913 22.146 58.5113 22.8188C59.6707 23.8673 60.3925 25.3746 60.3925 27.0479ZM42.42 21.3115H52.3469C53.6025 21.3115 54.6482 20.2892 54.6482 19.0353V17.8513C54.6482 16.5975 53.6025 15.5752 52.3469 15.5752H42.42V21.3115ZM56.0657 27.8605C56.0657 26.6284 55.0682 25.6105 53.8125 25.6105H42.42V31.3687H53.8125C55.0682 31.3687 56.0657 30.3464 56.0657 29.1187V27.8605Z" fill="#00AE8A"/>
<path d="M63.1794 11.2849H67.4801V35.6327H63.1794V11.2849Z" fill="#00AE8A"/>
<path d="M88.4712 26.0693V28.0441C88.4712 32.2469 85.0543 35.659 80.8456 35.659H77.4287C73.22 35.659 69.8031 32.2469 69.8031 28.0441V26.0693C69.8031 21.8664 73.22 18.4543 77.4287 18.4543H80.8456C85.0543 18.4587 88.4712 21.8708 88.4712 26.0693ZM84.1706 25.9077C84.1706 24.1688 82.7531 22.749 81.0075 22.749H77.2668C75.5256 22.749 74.1037 24.1645 74.1037 25.9077V28.2057C74.1037 29.9489 75.5212 31.3644 77.2668 31.3644H81.0075C82.7487 31.3644 84.1706 29.9489 84.1706 28.2057V25.9077Z" fill="#00AE8A"/>
<path d="M95.0994 25.8858V28.1839C95.0994 29.9227 96.5169 31.3426 98.2582 31.3426H101.977C102.979 31.3426 103.884 30.8533 104.466 30.1368L107.463 33.1295C106.068 34.6629 104.046 35.6372 101.815 35.6372H98.4201C94.2113 35.6372 90.7944 32.2251 90.7944 28.0222V26.0475C90.7944 21.8446 94.2113 18.4587 98.4201 18.4587H101.815C104.046 18.4587 106.068 19.4112 107.463 20.9665L104.466 23.9592C103.884 23.2165 102.979 22.7534 101.977 22.7534H98.2582C96.5169 22.7534 95.0994 24.1427 95.0994 25.8858Z" fill="#00AE8A"/>
<path d="M124.132 29.0444L128.244 35.6371H123.178L115.483 23.2862C114.647 23.8411 114.087 24.8197 114.087 25.8857V35.6371H109.786V11.2849H114.087V21.1979C114.109 21.1761 114.135 21.1761 114.135 21.1499C115.041 19.9877 116.274 19.1533 117.714 18.7339C118.318 18.546 118.991 18.4543 119.665 18.4543H124.849V22.7489H120.199L124.132 29.0444Z" fill="#00AE8A"/>
<path d="M135.336 31.3643H147.564V35.6589H135.336H131.036V31.3643V11.2849H135.336V31.3643Z" fill="#78CABB"/>
<path d="M155.378 13.7927C155.378 15.1863 154.262 16.3004 152.867 16.3004C151.471 16.3004 150.356 15.1863 150.356 13.7927C150.356 12.4252 151.471 11.2849 152.867 11.2849C154.262 11.2849 155.378 12.4208 155.378 13.7927ZM150.706 18.4586H155.006V35.6371H150.706V18.4586Z" fill="#78CABB"/>
<path d="M173.6 29.1799C174.042 29.8527 174.252 30.5517 174.204 31.2463C174.086 33.1949 172.183 34.7283 169.111 35.3531C168.184 35.5628 167.204 35.6545 166.206 35.6545C165.134 35.6545 164.115 35.5366 163.183 35.3312C162.089 35.0997 161.114 34.7065 160.278 34.2172C159.303 33.6361 158.511 32.8934 157.977 32.0109L157.723 31.6177L161.534 29.7129L161.788 30.0842C162.251 30.8488 163.183 31.2463 163.905 31.4298C164.763 31.6832 165.813 31.7793 166.858 31.7094C167.764 31.6395 168.626 31.4779 169.251 31.1983C169.439 31.1284 169.575 31.0585 169.693 30.9886C169.575 30.8968 169.391 30.7352 169.111 30.5692C168.739 30.3158 166.972 29.5949 165.274 28.8959C162.973 27.9435 160.58 26.9474 159.906 26.4799C159.211 25.9906 158.673 25.4576 158.301 24.9246C157.859 24.2518 157.649 23.5571 157.697 22.8362C157.815 20.9096 159.718 19.3542 162.811 18.7295C164.719 18.3363 166.88 18.3363 168.739 18.7513C169.833 19.0047 170.809 19.3761 171.644 19.8872C172.62 20.4683 173.39 21.211 173.946 22.0935L174.178 22.4867L170.367 24.3916L170.135 23.9984C169.671 23.2338 168.718 22.8624 168.022 22.6527C167.138 22.4212 166.093 22.3294 165.069 22.3993C164.163 22.4474 163.301 22.6309 162.649 22.8887C162.461 22.9804 162.326 23.0503 162.229 23.0984C162.348 23.2163 162.531 23.3518 162.789 23.5396C163.183 23.7712 164.929 24.5139 166.626 25.2129C168.949 26.1653 171.347 27.1396 171.994 27.6027C172.694 28.1138 173.25 28.625 173.6 29.1799Z" fill="#78CABB"/>
<path d="M184.017 31.3643H187.316V35.6589H184.179C179.97 35.6589 176.553 32.2468 176.553 28.044V11.2849H180.854V19.2013C181.877 18.712 182.993 18.4586 184.179 18.4586H186.62V22.7532H184.017C182.276 22.7532 180.854 24.1688 180.854 25.9119V28.21C180.854 29.9488 182.271 31.3643 184.017 31.3643Z" fill="#78CABB"/>
</g>
<defs>
<filter id="filter0_f_17_6266" x="-776" y="-516" width="1375" height="1375" filterUnits="userSpaceOnUse" color-interpolation-filters="sRGB">
<feFlood flood-opacity="0" result="BackgroundImageFix"/>
<feBlend mode="normal" in="SourceGraphic" in2="BackgroundImageFix" result="shape"/>
<feGaussianBlur stdDeviation="260" result="effect1_foregroundBlur_17_6266"/>
</filter>
<filter id="filter1_dd_17_6266" x="-81" y="-29" width="1452" height="112" filterUnits="userSpaceOnUse" color-interpolation-filters="sRGB">
<feFlood flood-opacity="0" result="BackgroundImageFix"/>
<feColorMatrix in="SourceAlpha" type="matrix" values="0 0 0 0 0 0 0 0 0 0 0 0 0 0 0 0 0 0 127 0" result="hardAlpha"/>
<feMorphology radius="2" operator="erode" in="SourceAlpha" result="effect1_dropShadow_17_6266"/>
<feOffset dy="2"/>
<feGaussianBlur stdDeviation="2"/>
<feComposite in2="hardAlpha" operator="out"/>
<feColorMatrix type="matrix" values="0 0 0 0 0.0666667 0 0 0 0 0.0666667 0 0 0 0 0.0666667 0 0 0 0.05 0"/>
<feBlend mode="normal" in2="BackgroundImageFix" result="effect1_dropShadow_17_6266"/>
<feColorMatrix in="SourceAlpha" type="matrix" values="0 0 0 0 0 0 0 0 0 0 0 0 0 0 0 0 0 0 127 0" result="hardAlpha"/>
<feMorphology radius="1" operator="erode" in="SourceAlpha" result="effect2_dropShadow_17_6266"/>
<feOffset dy="4"/>
<feGaussianBlur stdDeviation="3.5"/>
<feComposite in2="hardAlpha" operator="out"/>
<feColorMatrix type="matrix" values="0 0 0 0 0.0666667 0 0 0 0 0.0666667 0 0 0 0 0.0666667 0 0 0 0.1 0"/>
<feBlend mode="normal" in2="effect1_dropShadow_17_6266" result="effect2_dropShadow_17_6266"/>
<feBlend mode="normal" in="SourceGraphic" in2="effect2_dropShadow_17_6266" result="shape"/>
</filter>
<clipPath id="clip0_17_6266">
<rect width="1440" height="5029" fill="white" transform="translate(-75 -27)"/>
</clipPath>
</defs>
</svg>
